<svg xmlns="http://www.w3.org/2000/svg" viewBox="0 0 1182.91 603.73"><defs><style>.cls-1,
.cls-2 {
    fill: #211915;
}

.cls-2 {
    stroke: #fff;
}

.cls-2,
.cls-4 {
    stroke-miterlimit: 10;
}

.cls-3 {
    fill: transparent;
    -webkit-animation: colorIso 2s forwards 3s;
    -moz-animation: colorIso 2s forwards 3s;
    -o-animation: colorIso 2s forwards 3s;
    animation: colorIso 2s forwards 3s;
}

.cls-4 {
    fill: none;
    stroke: transparent;
    stroke-width: 1px;
    stroke-dasharray: 100%;
    stroke-dashoffset: 0%;
    -webkit-animation: animacion 5s ;
    -moz-animation: animacion 5s ;
    -o-animation: animacion 5s ;
    animation: animacion 5s ;
}

@-webkit-keyframes animacion {
    from{
        stroke-dashoffset: 100%;
        stroke: #211915;
    }
    to{
        stroke-dashoffset: 0%;
        stroke: transparent;
    }
}
@keyframes animacion {
    from{
        stroke-dashoffset: 100%;
        stroke: #211915;
    }
    to{
        stroke-dashoffset: 0%;
        stroke: transparent;
    }
}

@-webkit-keyframes colorIso {
    from{
        fill: transparent;
    }
    to{
        fill: #7ABF49;
    }
}
@keyframes colorISo {
    from{
        fill: transparent;
    }
    to{
        fill: #7ABF49;
    }
}

</style>
</defs>
<title>cut</title>
<g id="isotipo">
    <path class="cls-1" d="M389.79,544.21a29.76,29.76,0,0,1-10.2-4.83l4.34-8.24a31.06,31.06,0,0,0,9.22,4.34,37.93,37.93,0,0,0,11,1.63q13.66,0,13.66-7.81a5.07,5.07,0,0,0-1.84-4.12,11.72,11.72,0,0,0-4.61-2.22q-2.77-.7-7.86-1.57a76.83,76.83,0,0,1-11.33-2.5,17.43,17.43,0,0,1-7.54-4.77q-3.15-3.36-3.14-9.43a14.74,14.74,0,0,1,6.51-12.53q6.51-4.72,17.46-4.72a48.18,48.18,0,0,1,11.5,1.41,30.94,30.94,0,0,1,9.43,3.8l-4.45,8.24a29.9,29.9,0,0,0-16.59-4.55q-6.61,0-10.09,2.17a6.54,6.54,0,0,0-3.47,5.75,5.48,5.48,0,0,0,2,4.45,12.32,12.32,0,0,0,4.83,2.38q2.87.76,8.08,1.74a88.19,88.19,0,0,1,11.23,2.55,16.77,16.77,0,0,1,7.32,4.61q3,3.25,3,9.11a14.36,14.36,0,0,1-6.67,12.42q-6.67,4.61-18.16,4.61A48.22,48.22,0,0,1,389.79,544.21Z"/>
    <path class="cls-1" d="M489.78,542.09a15.49,15.49,0,0,1-5.64,3,23.55,23.55,0,0,1-6.94,1q-8.68,0-13.45-4.66T459,528.1V496.55h-9.76V488H459V475.4h10.41V488h16.48v8.57H469.39v31.12q0,4.66,2.33,7.16a8.67,8.67,0,0,0,6.67,2.5,12.55,12.55,0,0,0,8.13-2.71Z"/>
    <path class="cls-1" d="M525.89,542.31a27.51,27.51,0,0,1-10.68-10.47,31.65,31.65,0,0,1,0-30.26,27.14,27.14,0,0,1,10.68-10.41,33.46,33.46,0,0,1,30.74,0,27.26,27.26,0,0,1,10.63,10.41,31.65,31.65,0,0,1,0,30.26,27.64,27.64,0,0,1-10.63,10.47,33,33,0,0,1-30.74,0Zm25.32-7.86a18,18,0,0,0,6.89-7.16,23.65,23.65,0,0,0,0-21.15,17.64,17.64,0,0,0-6.89-7.1,21,21,0,0,0-19.85,0,18,18,0,0,0-6.94,7.1,23.22,23.22,0,0,0,0,21.15,18.34,18.34,0,0,0,6.94,7.16,20.6,20.6,0,0,0,19.85,0Z"/>
    <path class="cls-1" d="M619.8,490a29.14,29.14,0,0,1,12.91-2.6v10.09a20.74,20.74,0,0,0-2.39-.11q-8.46,0-13.28,5t-4.83,14.37v28.63H601.8V488h10v9.65A17.75,17.75,0,0,1,619.8,490Z"/>
    <path class="cls-1" d="M713,520.19H666.32a18,18,0,0,0,6.67,12.2A21.76,21.76,0,0,0,687.15,537q10.3,0,16.59-6.94l5.75,6.72a25.19,25.19,0,0,1-9.71,6.94,36.61,36.61,0,0,1-29.12-1.35,26.66,26.66,0,0,1-10.9-10.47,30,30,0,0,1-3.85-15.18,30.48,30.48,0,0,1,3.74-15.07A26.81,26.81,0,0,1,670,491.18a29.36,29.36,0,0,1,14.8-3.74,28.77,28.77,0,0,1,14.69,3.74,26.3,26.3,0,0,1,10.09,10.47,31.9,31.9,0,0,1,3.63,15.4A29.57,29.57,0,0,1,713,520.19Zm-40.72-19.41a18.35,18.35,0,0,0-5.91,11.93H703.2a18.5,18.5,0,0,0-5.91-11.88,19.42,19.42,0,0,0-25.05-.05Z"/>
    <path class="cls-1" d="M871,472.78c-1.14,3.62-2.31,7.23-3.41,10.87q-5.25,17.35-10.46,34.72c-1.81,6-5.66,9.92-11.92,11.18a17.51,17.51,0,0,1-3.44.25q-30.54,0-61.08,0c-6.85,0-11.92-3-14.52-9.36a41,41,0,0,1-1.89-8.26q-4.4-24.53-8.72-49.07c-.34-1.92-.61-3.86-1.08-5.74a11.55,11.55,0,0,0-9.49-9.09c-2.47-.52-5-.88-7.46-1.34a3.11,3.11,0,0,1-2.69-2.26,2.55,2.55,0,0,1,.88-2.87,3.06,3.06,0,0,1,2-.74c3.87.67,7.88,1,11.55,2.35,6.78,2.42,10.31,7.74,11.48,14.74.59,3.53,1.25,7.05,1.9,10.71h1.9q51.1,0,102.2,0c1.82,0,3.3.38,4.22,2.06Zm-7,2.15H763.8c.44,2.48.85,4.88,1.28,7.27,2,11.21,3.93,22.43,6,33.63,1,5.26,4.34,8,9.65,8h61.22c4.89,0,8-2.33,9.44-7q4.8-15.83,9.58-31.66Z"/>
    <path class="cls-1" d="M842.23,569.45a16.22,16.22,0,1,1,16.27-16.2A16.19,16.19,0,0,1,842.23,569.45Zm10.26-16a10.24,10.24,0,0,0-20.48-.31,10.24,10.24,0,1,0,20.48.31Z"/>
    <path class="cls-2" d="M795.81,553.43A16.21,16.21,0,1,1,779.73,537,16.17,16.17,0,0,1,795.81,553.43Zm-6-.2a10.25,10.25,0,1,0-10.22,10.29A10.26,10.26,0,0,0,789.84,553.23Z"/>
    <path class="cls-3" d="M803.48,98.24,805.2,100V256.82a170.84,170.84,0,0,1-28.47,94.69,172.63,172.63,0,0,1-144.15,77.35V263.52A165.63,165.63,0,0,1,793.48,98.24Z"/>
    <path class="cls-3" d="M451,98.24,449.31,100V256.24a169.78,169.78,0,0,0,28.47,94.34,172.79,172.79,0,0,0,144.15,77.07V262.92c0-66.09-39.18-123.09-95.74-149.33A165.94,165.94,0,0,0,461,98.24Z"/></g>
<g id="boder">
    <path class="cls-4" d="M804.23,97.64l1.72,1.72V256.22a170.84,170.84,0,0,1-28.47,94.69,172.63,172.63,0,0,1-144.15,77.35V262.92A165.63,165.63,0,0,1,794.23,97.64Z"/>
    <path class="cls-4" d="M451.77,97.64l-1.72,1.72V255.64A169.78,169.78,0,0,0,478.53,350a172.79,172.79,0,0,0,144.15,77.07V262.32c0-66.09-39.18-123.09-95.74-149.33a165.94,165.94,0,0,0-65.16-15.34Z"/></g>
<g id="texto">
    <path class="cls-3" d="M921.73,178.82H816.27V93.58h332.32v85.24H1043.13V419.62H921.73Z"/>
    <path class="cls-3" d="M175.32,405.42q-45.79-21.66-71.76-60.55t-26-88.26q0-49.37,26-88.27t71.76-60.55Q221.1,86.13,278.2,86.13q52.47,0,93.62,16.77t67.91,48.44l-76.65,61.95q-33.45-38.18-78.71-38.19-38.08,0-61.22,22.12T200,256.6q0,37.27,23.15,59.39t61.22,22.12q45.26,0,78.71-38.19l76.65,61.95Q413,393.55,371.83,410.31T278.2,427.07Q221.1,427.07,175.32,405.42Z"/></g>
</svg>